name rise30.9205peak61.366fall85.3838.mot
datacolumns 19
datarows 33
range 6.80830500000000 6.86164000000000
endheader
time	ground_force1_vx	ground_force1_vy	ground_force1_vz	ground_force1_px	ground_force1_py	ground_force1_pz	ground_force2_vx	ground_force2_vy	ground_force2_vz	ground_force2_px	ground_force2_py	ground_force2_pz	ground_torque1_x	ground_torque1_y	ground_torque1_z	ground_torque2_x	ground_torque2_y	ground_torque2_z	
6.80830500000000	59.71759400000000	705.22535500000004	47.69188500000000	0.34966300000000	0.00000000000000	0.08462200000000	-5.98943200000000	34.15134300000000	3.38697200000000	-0.03929100000000	0.00000000000000	-0.08235500000000	0.00000000000000	23.25989400000000	0.00000000000000	0.00000000000000	-1.56053400000000	0.00000000000000	
6.80997700000000	59.63873100000000	710.42689099999996	47.96397700000000	0.34904600000000	0.00000000000000	0.08457000000000	-4.67516800000000	27.67012800000000	2.87061800000000	-0.04412400000000	0.00000000000000	-0.08123400000000	0.00000000000000	23.37709000000000	0.00000000000000	0.00000000000000	-1.24836500000000	0.00000000000000	
6.81164700000000	59.55304500000000	715.54668800000002	48.23665800000000	0.34844900000000	0.00000000000000	0.08451900000000	-3.49364200000000	21.61159000000000	2.35080800000000	0.00000000000000	0.00000000000000	0.00000000000000	0.00000000000000	23.49637000000000	0.00000000000000	0.00000000000000	-0.56587700000000	0.00000000000000	
6.81331100000000	59.46062600000000	720.58050900000001	48.50933300000000	0.34786900000000	0.00000000000000	0.08446700000000	-2.45856600000000	16.08955400000000	1.84526300000000	0.00000000000000	0.00000000000000	0.00000000000000	0.00000000000000	23.61733200000000	0.00000000000000	0.00000000000000	-0.40880600000000	0.00000000000000	
6.81497700000000	59.36154400000000	725.52412500000003	48.78135200000000	0.34730700000000	0.00000000000000	0.08441500000000	-1.57888300000000	11.19983400000000	1.37056300000000	0.00000000000000	0.00000000000000	0.00000000000000	0.00000000000000	23.73953800000000	0.00000000000000	0.00000000000000	-0.27277200000000	0.00000000000000	
6.81664400000000	59.25585000000000	730.37333100000001	49.05201600000000	0.34676000000000	0.00000000000000	0.08436200000000	-0.85792800000000	7.01197800000000	0.94093600000000	0.00000000000000	0.00000000000000	0.00000000000000	0.00000000000000	23.86251100000000	0.00000000000000	0.00000000000000	-0.15900400000000	0.00000000000000	
6.81830900000000	59.14357600000000	735.12395800000002	49.32057900000000	0.34622900000000	0.00000000000000	0.08430900000000	-0.29311600000000	3.56384700000000	0.56731100000000	0.00000000000000	0.00000000000000	0.00000000000000	0.00000000000000	23.98574700000000	0.00000000000000	0.00000000000000	-0.06780700000000	0.00000000000000	
6.81997100000000	59.02474100000000	739.77188400000000	49.58625800000000	0.34571200000000	0.00000000000000	0.08425600000000	0.00000000000000	0.00000000000000	0.00000000000000	0.00000000000000	0.00000000000000	0.00000000000000	0.00000000000000	24.10870900000000	0.00000000000000	0.00000000000000	0.00000000000000	0.00000000000000	
6.82164000000000	58.89935000000000	744.31304599999999	49.84823700000000	0.34520800000000	0.00000000000000	0.08420200000000	0.00000000000000	0.00000000000000	0.00000000000000	0.00000000000000	0.00000000000000	0.00000000000000	0.00000000000000	24.23084000000000	0.00000000000000	0.00000000000000	0.00000000000000	0.00000000000000	
6.82330800000000	58.76739700000000	748.74345500000004	50.10567400000000	0.34471600000000	0.00000000000000	0.08414800000000	0.00000000000000	0.00000000000000	0.00000000000000	0.00000000000000	0.00000000000000	0.00000000000000	0.00000000000000	24.35155900000000	0.00000000000000	0.00000000000000	0.00000000000000	0.00000000000000	
6.82498000000000	58.62886800000000	753.05920500000002	50.35770700000000	0.34423500000000	0.00000000000000	0.08409300000000	0.00000000000000	0.00000000000000	0.00000000000000	0.00000000000000	0.00000000000000	0.00000000000000	0.00000000000000	24.47027300000000	0.00000000000000	0.00000000000000	0.00000000000000	0.00000000000000	
6.82664100000000	58.48374100000000	757.25648500000000	50.60345700000000	0.34376300000000	0.00000000000000	0.08403800000000	0.00000000000000	0.00000000000000	0.00000000000000	0.00000000000000	0.00000000000000	0.00000000000000	0.00000000000000	24.58637200000000	0.00000000000000	0.00000000000000	0.00000000000000	0.00000000000000	
6.82830500000000	58.33199000000000	761.33159100000000	50.84204200000000	0.34329900000000	0.00000000000000	0.08398300000000	0.00000000000000	0.00000000000000	0.00000000000000	0.00000000000000	0.00000000000000	0.00000000000000	0.00000000000000	24.69924100000000	0.00000000000000	0.00000000000000	0.00000000000000	0.00000000000000	
6.82998000000000	58.17358700000000	765.28093799999999	51.07257300000000	0.34284200000000	0.00000000000000	0.08392700000000	0.00000000000000	0.00000000000000	0.00000000000000	0.00000000000000	0.00000000000000	0.00000000000000	0.00000000000000	24.80825900000000	0.00000000000000	0.00000000000000	0.00000000000000	0.00000000000000	
6.83163900000000	58.00849900000000	769.10107100000005	51.29416800000000	0.34239100000000	0.00000000000000	0.08387100000000	0.00000000000000	0.00000000000000	0.00000000000000	0.00000000000000	0.00000000000000	0.00000000000000	0.00000000000000	24.91280400000000	0.00000000000000	0.00000000000000	0.00000000000000	0.00000000000000	
6.83330700000000	57.83669900000000	772.78867400000001	51.50595500000000	0.34194400000000	0.00000000000000	0.08381400000000	0.00000000000000	0.00000000000000	0.00000000000000	0.00000000000000	0.00000000000000	0.00000000000000	0.00000000000000	25.01225900000000	0.00000000000000	0.00000000000000	0.00000000000000	0.00000000000000	
6.83497600000000	57.65815800000000	776.34058000000005	51.70707800000000	0.34150100000000	0.00000000000000	0.08375700000000	0.00000000000000	0.00000000000000	0.00000000000000	0.00000000000000	0.00000000000000	0.00000000000000	0.00000000000000	25.10601400000000	0.00000000000000	0.00000000000000	0.00000000000000	0.00000000000000	
6.83664100000000	57.47285200000000	779.75378400000000	51.89670100000000	0.34105900000000	0.00000000000000	0.08370000000000	0.00000000000000	0.00000000000000	0.00000000000000	0.00000000000000	0.00000000000000	0.00000000000000	0.00000000000000	25.19346900000000	0.00000000000000	0.00000000000000	0.00000000000000	0.00000000000000	
6.83831000000000	57.28076200000000	783.02544699999999	52.07401600000000	0.34061700000000	0.00000000000000	0.08364200000000	0.00000000000000	0.00000000000000	0.00000000000000	0.00000000000000	0.00000000000000	0.00000000000000	0.00000000000000	25.27403900000000	0.00000000000000	0.00000000000000	0.00000000000000	0.00000000000000	
6.83997600000000	57.08187400000000	786.15291200000001	52.23824500000000	0.34017500000000	0.00000000000000	0.08358400000000	0.00000000000000	0.00000000000000	0.00000000000000	0.00000000000000	0.00000000000000	0.00000000000000	0.00000000000000	25.34715700000000	0.00000000000000	0.00000000000000	0.00000000000000	0.00000000000000	
6.84164100000000	56.87618300000000	789.13370399999997	52.38864900000000	0.33973000000000	0.00000000000000	0.08352600000000	0.00000000000000	0.00000000000000	0.00000000000000	0.00000000000000	0.00000000000000	0.00000000000000	0.00000000000000	25.41227900000000	0.00000000000000	0.00000000000000	0.00000000000000	0.00000000000000	
6.84330500000000	56.66369100000000	791.96554400000002	52.52452700000000	0.33928100000000	0.00000000000000	0.08346800000000	0.00000000000000	0.00000000000000	0.00000000000000	0.00000000000000	0.00000000000000	0.00000000000000	0.00000000000000	25.46888300000000	0.00000000000000	0.00000000000000	0.00000000000000	0.00000000000000	
6.84497200000000	56.44441000000000	794.64635399999997	52.64522600000000	0.33882800000000	0.00000000000000	0.08340900000000	0.00000000000000	0.00000000000000	0.00000000000000	0.00000000000000	0.00000000000000	0.00000000000000	0.00000000000000	25.51647700000000	0.00000000000000	0.00000000000000	0.00000000000000	0.00000000000000	
6.84664000000000	56.21835900000000	797.17426300000000	52.75013800000000	0.33836800000000	0.00000000000000	0.08335000000000	0.00000000000000	0.00000000000000	0.00000000000000	0.00000000000000	0.00000000000000	0.00000000000000	0.00000000000000	25.55460000000000	0.00000000000000	0.00000000000000	0.00000000000000	0.00000000000000	
6.84831000000000	55.98557100000000	799.54761599999995	52.83871000000000	0.33790100000000	0.00000000000000	0.08329100000000	0.00000000000000	0.00000000000000	0.00000000000000	0.00000000000000	0.00000000000000	0.00000000000000	0.00000000000000	25.58282100000000	0.00000000000000	0.00000000000000	0.00000000000000	0.00000000000000	
6.84997500000000	55.74608900000000	801.76497300000005	52.91044200000000	0.33742400000000	0.00000000000000	0.08323200000000	0.00000000000000	0.00000000000000	0.00000000000000	0.00000000000000	0.00000000000000	0.00000000000000	0.00000000000000	25.60074700000000	0.00000000000000	0.00000000000000	0.00000000000000	0.00000000000000	
6.85164400000000	55.49996600000000	803.82512199999996	52.96489300000000	0.33693800000000	0.00000000000000	0.08317200000000	0.00000000000000	0.00000000000000	0.00000000000000	0.00000000000000	0.00000000000000	0.00000000000000	0.00000000000000	25.60802200000000	0.00000000000000	0.00000000000000	0.00000000000000	0.00000000000000	
6.85330800000000	55.24726800000000	805.72707800000001	53.00167900000000	0.33644000000000	0.00000000000000	0.08311300000000	0.00000000000000	0.00000000000000	0.00000000000000	0.00000000000000	0.00000000000000	0.00000000000000	0.00000000000000	25.60432900000000	0.00000000000000	0.00000000000000	0.00000000000000	0.00000000000000	
6.85497400000000	54.98807200000000	807.47008800000003	53.02048100000000	0.33593000000000	0.00000000000000	0.08305300000000	0.00000000000000	0.00000000000000	0.00000000000000	0.00000000000000	0.00000000000000	0.00000000000000	0.00000000000000	25.58939300000000	0.00000000000000	0.00000000000000	0.00000000000000	0.00000000000000	
6.85663800000000	54.72246800000000	809.05363299999999	53.02104000000000	0.33540600000000	0.00000000000000	0.08299400000000	0.00000000000000	0.00000000000000	0.00000000000000	0.00000000000000	0.00000000000000	0.00000000000000	0.00000000000000	25.56298000000000	0.00000000000000	0.00000000000000	0.00000000000000	0.00000000000000	
6.85831200000000	54.45055700000000	810.47743300000002	53.00316200000000	0.33486700000000	0.00000000000000	0.08293400000000	0.00000000000000	0.00000000000000	0.00000000000000	0.00000000000000	0.00000000000000	0.00000000000000	0.00000000000000	25.52490000000000	0.00000000000000	0.00000000000000	0.00000000000000	0.00000000000000	
6.85997300000000	54.17245200000000	811.74144600000000	52.96671500000000	0.33431100000000	0.00000000000000	0.08287500000000	0.00000000000000	0.00000000000000	0.00000000000000	0.00000000000000	0.00000000000000	0.00000000000000	0.00000000000000	25.47500700000000	0.00000000000000	0.00000000000000	0.00000000000000	0.00000000000000	
6.86164000000000	53.88827900000000	812.84586800000000	52.91163500000000	0.33373900000000	0.00000000000000	0.08281600000000	0.00000000000000	0.00000000000000	0.00000000000000	0.00000000000000	0.00000000000000	0.00000000000000	0.00000000000000	25.41320000000000	0.00000000000000	0.00000000000000	0.00000000000000	0.00000000000000	
